<svg width="32.976318" height="32.976303" viewBox="0 0 32.9763 32.9763" fill="none" xmlns="http://www.w3.org/2000/svg" xmlns:xlink="http://www.w3.org/1999/xlink">
	<desc>
			Created with Pixso.
	</desc>
	<defs>
		<linearGradient id="paint_linear_11_4221_0" x1="16.488155" y1="0.000000" x2="16.488155" y2="32.731731" gradientUnits="userSpaceOnUse">
			<stop stop-color="#2AABEE"/>
			<stop offset="1.000000" stop-color="#229ED9"/>
		</linearGradient>
	</defs>
	<path id="Oval" d="M32.9763 16.4882C32.9763 25.5943 25.5943 32.9763 16.4882 32.9763C7.38199 32.9763 0 25.5943 0 16.4882C0 7.382 7.38199 0 16.4882 0C25.5943 0 32.9763 7.382 32.9763 16.4882Z" fill="url(#paint_linear_11_4221_0)" fill-opacity="1.000000" fill-rule="evenodd"/>
	<path id="Path-3" d="M7.4635 16.314C12.2701 14.2198 15.4753 12.8392 17.079 12.1722C21.658 10.2677 22.6094 9.93683 23.2296 9.9259C23.366 9.92349 23.6709 9.95729 23.8685 10.1176C24.0353 10.2529 24.0812 10.4358 24.1031 10.5641C24.1251 10.6924 24.1525 10.9848 24.1307 11.2132C23.8826 13.8204 22.8089 20.1473 22.2627 23.0673C22.0316 24.3029 21.5764 24.7172 21.1359 24.7578C20.1784 24.8459 19.4513 24.125 18.5239 23.5171C17.0728 22.5658 16.2529 21.9736 14.8443 21.0454C13.2164 19.9726 14.2717 19.383 15.1994 18.4194C15.4422 18.1673 19.661 14.33 19.7426 13.9819C19.7529 13.9383 19.7623 13.7761 19.6659 13.6904C19.5695 13.6047 19.4272 13.634 19.3246 13.6573C19.179 13.6903 16.8607 15.2226 12.3698 18.2542C11.7117 18.706 11.1157 18.9262 10.5817 18.9146C9.99295 18.9019 8.8605 18.5818 8.01865 18.3081C6.98608 17.9725 6.16541 17.795 6.23688 17.225C6.27411 16.9281 6.68298 16.6244 7.4635 16.314Z" fill="#FFFFFF" fill-opacity="1.000000" fill-rule="evenodd"/>
</svg>
