<svg width="32.000000" height="33.000000" viewBox="0 0 32 33" fill="none" xmlns="http://www.w3.org/2000/svg" xmlns:xlink="http://www.w3.org/1999/xlink">
	<desc>
			Created with Pixso.
	</desc>
	<defs>
		<linearGradient id="paint_linear_11_4219_0" x1="0.000000" y1="16.501814" x2="32.000000" y2="16.501814" gradientUnits="userSpaceOnUse">
			<stop stop-color="#20B038"/>
			<stop offset="1.000000" stop-color="#60D66A"/>
		</linearGradient>
	</defs>
	<path id="Union" d="M0.12851 16.335C0.12851 19.239 0.867462 22.044 2.28113 24.519L0 33L8.4498 30.723C10.7631 32.043 13.3976 32.703 16.0643 32.703C24.8353 32.703 32 25.377 32 16.368C32 11.979 30.3293 7.88699 27.3414 4.785C24.3213 1.716 20.3373 0 16.0643 0C7.29318 0 0.12851 7.326 0.12851 16.335ZM5.1727 24.09L4.85141 23.595C3.53415 21.417 2.8273 18.909 2.8273 16.368C2.8273 8.84399 8.77109 2.772 16.0643 2.772C19.5984 2.772 22.9398 4.19099 25.4137 6.73199C27.9197 9.306 29.3012 12.738 29.3012 16.368C29.3012 23.859 23.3574 29.964 16.0643 29.964C13.6867 29.964 11.3414 29.304 9.31726 28.05L8.83533 27.753L3.8233 29.106L5.1727 24.09ZM12.0851 9.53081C11.787 8.85019 11.4732 8.83655 11.1896 8.82463C10.9705 8.81499 10.7212 8.81503 10.4707 8.81506L10.427 8.81506C10.1618 8.81506 9.73059 8.9174 9.36606 9.32642C9.34271 9.35258 9.31665 9.38112 9.28833 9.41214C8.8739 9.86609 7.97311 10.8527 7.97311 12.735C7.97311 14.7317 9.37894 16.6615 9.59351 16.956L9.59796 16.9621C9.61304 16.9827 9.64163 17.0263 9.68338 17.0898C10.1926 17.865 12.6573 21.6172 16.3954 23.1313C19.4334 24.3618 20.2845 24.259 20.9587 24.1776C21.0305 24.1689 21.1003 24.1605 21.1705 24.1539C21.9001 24.0858 23.5248 23.1654 23.8564 22.211C24.188 21.2567 24.188 20.4388 24.0885 20.2678C24.0084 20.1307 23.8209 20.0377 23.5432 19.9C23.4759 19.8667 23.4034 19.8307 23.3258 19.7909C22.9278 19.5865 20.9715 18.5976 20.6067 18.4613C20.2419 18.3251 19.9766 18.257 19.7113 18.6661C19.446 19.0749 18.6838 19.9953 18.4516 20.2678C18.2195 20.541 17.9874 20.575 17.5894 20.3706C17.524 20.337 17.4349 20.2972 17.3248 20.2481C16.7642 19.9982 15.6602 19.5059 14.3894 18.3421C13.2065 17.2589 12.4079 15.921 12.1757 15.5118C11.9435 15.1031 12.1508 14.8817 12.3504 14.6779C12.4697 14.5556 12.6071 14.384 12.7444 14.2124C12.8128 14.127 12.8813 14.0415 12.9474 13.9622C13.1162 13.7592 13.1895 13.6057 13.2892 13.3967C13.3067 13.3599 13.3251 13.3214 13.3449 13.2806C13.4776 13.0077 13.4113 12.769 13.3118 12.5646C13.2696 12.4779 13.1061 12.0642 12.9048 11.5548C12.6316 10.8635 12.2888 9.99609 12.0851 9.53081Z" fill="url(#paint_linear_11_4219_0)" fill-opacity="1.000000" fill-rule="evenodd"/>
</svg>
