<svg width="112.990601" height="100.896729" viewBox="0 0 112.991 100.897" fill="none" xmlns="http://www.w3.org/2000/svg" xmlns:xlink="http://www.w3.org/1999/xlink">
	<desc>
			Created with Pixso.
	</desc>
	<defs/>
	<path id="Vector" d="M92.9009 32.7026C91.6984 32.2886 90.4856 31.905 89.2639 31.5522C89.4691 30.7106 89.6581 29.879 89.8258 29.0623C92.5791 15.6483 90.7792 4.84167 84.6313 1.28369C78.7368 -2.12732 69.0969 1.42944 59.3611 9.93335C58.4016 10.7729 57.4634 11.6367 56.5474 12.5239C55.9342 11.934 55.3102 11.3555 54.6755 10.7888C44.4719 1.69604 34.2445 -2.13611 28.1033 1.43213C22.2141 4.85364 20.4703 15.0126 22.949 27.7253C23.1957 28.9844 23.4741 30.2369 23.7841 31.4818C22.3364 31.8947 20.9395 32.3341 19.6025 32.8019C7.63965 36.988 0 43.5482 0 50.3529C0 57.3807 8.20154 64.4299 20.6614 68.7042C21.6715 69.0494 22.6901 69.3691 23.7161 69.6633C23.3829 71.0042 23.087 72.354 22.829 73.7113C20.4658 86.2034 22.3113 96.1222 28.1846 99.5221C34.2507 103.033 44.4323 99.4247 54.3458 90.7267C55.1498 90.0197 55.9359 89.2924 56.7036 88.5459C57.6957 89.5066 58.7141 90.4392 59.7579 91.3429C69.3612 99.6365 78.8455 102.985 84.713 99.5762C90.7734 96.0549 92.7433 85.3994 90.1859 72.4355C89.9845 71.4199 89.7585 70.4093 89.5084 69.4047C90.2235 69.192 90.9253 68.9731 91.6094 68.7455C104.563 64.4384 112.991 57.4747 112.991 50.3529C112.991 43.5234 105.104 36.9189 92.9009 32.7026ZM90.0916 64.1473C89.4736 64.3524 88.8397 64.5504 88.1936 64.7432C86.7635 60.1995 84.8339 55.3683 82.4722 50.3763C84.7257 45.5035 86.5813 40.7339 87.9712 36.22C89.1271 36.5557 90.2487 36.9097 91.33 37.2831C101.786 40.8961 108.164 46.2371 108.164 50.3529C108.164 54.7366 101.276 60.4276 90.0916 64.1473ZM85.4509 73.3765C86.5818 79.1086 86.7428 84.2915 85.9938 88.3435C85.3212 91.9844 83.9679 94.4115 82.2943 95.3838C78.7338 97.4525 71.1188 94.7637 62.9062 87.6705C61.9353 86.8304 60.9879 85.9633 60.0651 85.0703C63.2491 81.5756 66.431 77.5131 69.5365 73.0007C74.9989 72.5144 80.1593 71.7188 84.8392 70.6331C85.0646 71.5425 85.2686 72.4573 85.4509 73.3765ZM38.521 95.0262C35.0421 96.2592 32.2712 96.2946 30.5962 95.3253C27.0321 93.2623 25.5504 85.298 27.5715 74.615C27.8118 73.3527 28.0868 72.0972 28.3964 70.8501C33.0247 71.8778 38.1476 72.6167 43.6228 73.0624C46.7494 77.4775 50.0231 81.5358 53.3223 85.0894C52.6212 85.7703 51.9034 86.4337 51.1698 87.0792C46.7856 90.9252 42.3927 93.6539 38.521 95.0262ZM22.223 64.1202C16.7134 62.2301 12.1632 59.7738 9.04456 57.0933C6.24182 54.6848 4.82727 52.2931 4.82727 50.3529C4.82727 46.2234 10.9609 40.9563 21.1915 37.3766C22.4331 36.9424 23.7324 36.5327 25.0808 36.1482C26.495 40.764 28.3496 45.5903 30.5878 50.4707C28.3204 55.4232 26.4393 60.3265 25.0116 64.9969C24.075 64.7277 23.1451 64.4354 22.223 64.1202ZM27.6863 26.7946C25.5629 15.903 26.973 7.68701 30.5221 5.62488C34.3019 3.42859 42.6606 6.56006 51.4707 14.4115C52.0453 14.9246 52.6105 15.4481 53.166 15.9818C49.8832 19.5199 46.6395 23.548 43.5406 27.937C38.2266 28.4314 33.1398 29.2252 28.463 30.2888C28.1749 29.131 27.9159 27.9661 27.6863 26.795L27.6863 26.7946ZM76.4254 38.8739C75.3207 36.9587 74.175 35.0679 72.9893 33.2024C76.5944 33.6599 80.0486 34.2672 83.2922 35.0098C82.3185 38.1425 81.1047 41.4175 79.676 44.7753C78.6317 42.7866 77.548 40.8191 76.4254 38.8739ZM56.5496 19.4442C58.7759 21.8651 61.0057 24.5677 63.1989 27.5002C58.7499 27.2894 54.2935 27.2885 49.8444 27.4976C52.0397 24.592 54.2885 21.8929 56.5496 19.4442ZM36.5463 38.9071C35.4377 40.8367 34.3741 42.7919 33.3566 44.7712C31.9512 41.4254 30.7484 38.1354 29.7664 34.9584C32.9902 34.2345 36.428 33.6427 40.0101 33.1935C38.8112 35.0704 37.6562 36.9753 36.5463 38.9066L36.5463 38.9071ZM40.113 67.8568C36.4121 67.4423 32.9226 66.881 29.6997 66.1766C30.6973 62.9429 31.9265 59.5829 33.3623 56.1653C34.3839 58.1461 35.4519 60.1025 36.5653 62.033C37.7102 64.0176 38.8958 65.9613 40.113 67.8568ZM56.6829 81.6027C54.3949 79.1255 52.1129 76.3848 49.8845 73.4371C52.0481 73.5222 54.2537 73.5656 56.4954 73.5656C58.7983 73.5656 61.075 73.5138 63.3158 73.4137C61.1156 76.4144 58.8942 79.1591 56.6829 81.6027ZM79.7216 55.9907C81.2319 59.4459 82.5048 62.7882 83.5155 65.9667C80.2397 66.717 76.7025 67.3213 72.9756 67.77C74.1699 65.8699 75.3263 63.946 76.4443 61.9998C77.5811 60.0214 78.6737 58.0178 79.7216 55.9907ZM72.2633 59.5793C70.5518 62.5634 68.7439 65.4908 66.8428 68.3569C63.399 68.6018 59.9478 68.7234 56.4954 68.7216C52.9789 68.7216 49.5587 68.6117 46.2653 68.3973C44.3145 65.5377 42.4723 62.6052 40.7424 59.6058L40.7428 59.6058C39.0211 56.6224 37.413 53.5745 35.9218 50.4685C37.4092 47.3618 39.0125 44.3124 40.7283 41.3267L40.7278 41.327C42.443 38.3406 44.2705 35.4205 46.2065 32.5734C49.5667 32.3181 53.0125 32.1853 56.4949 32.1853L56.4954 32.1853C59.9937 32.1853 63.4438 32.3195 66.8031 32.5764C68.7195 35.4194 70.5354 38.3293 72.2473 41.3009C73.9689 44.28 75.5934 47.3147 77.1183 50.3998C75.609 53.5165 73.9896 56.5782 72.2633 59.5793ZM82.2206 5.48047C86.004 7.67065 87.4755 16.5023 85.0983 28.0841C84.9464 28.823 84.7761 29.5757 84.5907 30.3389C79.9025 29.2527 74.8121 28.4452 69.4827 27.9432C66.3781 23.5059 63.1609 19.4717 59.9314 15.9791C60.7777 15.1603 61.6443 14.3627 62.5302 13.587C70.8721 6.30139 78.6685 3.42456 82.2206 5.48047ZM56.4954 40.2263C62.0676 40.2263 66.5851 44.7603 66.5851 50.3529C66.5851 55.9456 62.0676 60.4794 56.4954 60.4794C50.923 60.4794 46.4056 55.9456 46.4056 50.3529C46.4056 44.7603 50.923 40.2263 56.4954 40.2263Z" fill="#00D8FF" fill-opacity="1.000000" fill-rule="nonzero"/>
</svg>
