<svg width="120.000000" height="119.989136" viewBox="0 0 120 119.989" fill="none" xmlns="http://www.w3.org/2000/svg" xmlns:xlink="http://www.w3.org/1999/xlink">
	<desc>
			Created with Pixso.
	</desc>
	<defs/>
	<path id="Vector" d="M68.7672 118.274C68.9471 117.867 69.4014 117.584 69.7313 117.241C74.7665 111.962 79.8445 106.73 84.811 101.386C86.3651 99.9506 87.5662 98.175 88.3199 96.1984C89.0737 94.2217 89.36 92.0973 89.1562 89.9916C89.0002 89.0898 88.7957 88.1973 88.5435 87.3176C87.1893 88.6031 85.9294 89.7731 84.661 90.9515C82.6898 92.7855 80.7272 94.6282 78.7389 96.4408C77.5664 97.6362 76.059 98.4479 74.4154 98.7684C72.772 99.089 71.0699 98.9034 69.5342 98.2363C67.9796 97.6652 66.627 96.65 65.6442 95.3169C64.6615 93.9836 64.0919 92.3912 64.0063 90.7372C63.9602 90.5244 63.8987 90.3153 63.822 90.1116C62.3093 91.3971 60.861 92.5798 59.4254 93.7969L29.5875 119.08C29.3818 119.255 29.1591 119.474 28.9662 119.645L68.7457 119.645L68.6858 119.607C68.4716 119.457 68.5829 118.668 68.7672 118.274Z" fill="#FFCEBF" fill-opacity="1.000000" fill-rule="nonzero"/>
	<path id="Vector" d="M27.1436 118.273C27.4974 117.812 27.9244 117.413 28.4077 117.091L69.7 82.059C72.5168 79.6678 75.3208 77.2638 78.1118 74.847C78.4567 74.6066 78.7269 74.2739 78.8917 73.8871C79.5593 70.9779 79.6541 67.9664 79.1703 65.021C78.7418 65.3209 78.5104 65.4496 78.3132 65.6595C74.9323 68.6848 71.5684 71.736 68.1702 74.7441C67.0444 75.8771 65.5885 76.624 64.0116 76.8773C62.4346 77.1306 60.818 76.8774 59.394 76.1539C57.9414 75.4681 56.7256 74.3657 55.9014 72.9867C55.0773 71.6078 54.682 70.0149 54.766 68.4106L54.766 67.0222C54.1447 67.4764 53.6904 67.7806 53.2662 68.1235C36.7396 81.3562 20.2158 94.579 3.69495 107.792C2.94934 108.387 2.05798 109.716 1.08093 108.426C0.104004 107.136 1.59094 106.605 2.34082 106.005C19.953 91.8721 37.5739 77.7523 55.2031 63.6455C58.0742 61.3444 58.2628 60.3801 56.3944 56.7249L55.2803 57.7704C52.2249 60.6116 49.1353 63.4141 46.1271 66.3022C44.8931 67.4926 43.3477 68.3096 41.6692 68.6588C39.9906 69.0082 38.2476 68.8757 36.6412 68.2766C35.0348 67.6775 33.6306 66.6362 32.5908 65.2732C31.5509 63.91 30.9178 62.2805 30.7646 60.573C30.1947 61.0015 29.7019 61.3143 29.2347 61.6786L3.09497 81.939C2.64417 82.3812 2.13 82.7538 1.56946 83.0446C1.14648 83.1725 0.692139 83.1498 0.283936 82.9803L0.283936 119.666L27.0922 119.666C26.9926 119.446 26.9453 119.205 26.9542 118.964C26.9631 118.722 27.028 118.486 27.1436 118.273Z" fill="#FFCEBF" fill-opacity="1.000000" fill-rule="nonzero"/>
	<path id="Vector" d="M99.5653 1.81543C98.8369 4.20227 98.1298 6.59351 97.4913 9.0061C96.9016 10.7109 96.9702 12.5747 97.6837 14.2317C98.3972 15.8885 99.7041 17.2191 101.348 17.9622C106.376 20.6052 112.042 21.7925 117.709 21.3903L117.709 2.22253C117.646 1.80237 117.669 1.37366 117.777 0.962769C117.897 0.730225 118.049 0.515381 118.227 0.324219L99.5482 0.324219C99.8353 0.658447 99.7368 1.24548 99.5653 1.81543Z" fill="#FF6196" fill-opacity="1.000000" fill-rule="nonzero"/>
	<path id="Vector" d="M62.0511 42.9923C61.9623 45.1317 61.2139 47.1914 59.9084 48.8888C55.2419 54.9127 49.8829 60.3667 43.9418 65.1383C42.9838 66.0251 41.7694 66.5857 40.473 66.7397C39.1765 66.8937 37.8646 66.6331 36.7256 65.9954C35.5917 65.5109 34.6357 64.6873 33.9889 63.6376C33.342 62.5879 33.0361 61.3636 33.1132 60.1332C33.2504 58.6218 33.8778 57.1968 34.9 56.0751C41.5436 49.7402 48.7415 44.0138 56.4075 38.9642C56.9095 38.5706 57.5227 38.3446 58.1602 38.3185C58.7977 38.2924 59.4272 38.4673 59.96 38.8185C60.6599 39.2532 61.226 39.8733 61.5951 40.61C61.9642 41.3468 62.1221 42.1714 62.0511 42.9923Z" fill="#FF87AF" fill-opacity="1.000000" fill-rule="nonzero"/>
	<path id="Vector" d="M56.9126 68.9646C56.8131 68.0175 56.9347 67.0601 57.2678 66.1677C57.601 65.2755 58.1365 64.4727 58.8324 63.8224C65.3373 57.8226 72.3163 52.3584 79.7013 47.4829C79.9242 47.3414 80.1299 47.2001 80.3741 47.0543C81.0192 46.5886 81.8008 46.3507 82.5959 46.3778C83.3911 46.405 84.1547 46.6957 84.7665 47.2043C85.3584 47.7058 85.7772 48.3811 85.9634 49.1343C86.1495 49.8875 86.0936 50.6801 85.8035 51.3995C84.8691 54.5115 83.1448 57.3284 80.7983 59.5757C76.0328 64.2705 71.1753 68.8708 66.2286 73.3741C65.4836 74.1401 64.505 74.6368 63.4469 74.7858C62.3888 74.9347 61.3112 74.7275 60.3835 74.1969C59.4089 73.6904 58.5791 72.9446 57.9719 72.0293C57.3647 71.114 57.0002 70.0594 56.9126 68.9646Z" fill="#FF87AF" fill-opacity="1.000000" fill-rule="nonzero"/>
	<path id="Vector" d="M87.8345 71.7963C86.6345 73.0818 85.4004 74.3074 84.2477 75.6229C83.9011 76.1313 83.6135 76.6777 83.3906 77.2513C84.0249 77.4398 84.7662 77.9369 85.2804 77.7612C87.8987 76.8828 90.4526 75.8286 93.328 74.7188C92.7024 76.1586 92.2311 77.4869 91.5669 78.704C88.8306 83.3026 85.4038 87.4534 81.4066 91.0111C79.8868 92.4767 78.3083 93.8779 76.6715 95.2148C75.8046 95.9343 74.7622 96.4105 73.6509 96.5948C72.5396 96.7792 71.3992 96.6649 70.3466 96.2639C69.2938 95.8629 68.3666 95.1895 67.6595 94.3124C66.9525 93.4354 66.4912 92.3864 66.3226 91.2725C66.254 90.6532 66.3087 90.0265 66.4838 89.4285C66.6588 88.8304 66.9508 88.2731 67.3425 87.7887C73.174 81.4562 79.8384 75.9451 87.1531 71.4062C87.2421 71.3718 87.3363 71.3529 87.4316 71.3506L87.8345 71.7963Z" fill="#FF87AF" fill-opacity="1.000000" fill-rule="nonzero"/>
	<path id="Vector" d="M97.6724 54.7283L105.004 22.1606L110.147 23.3647L107.494 31.4253C105.017 38.9243 102.51 46.4235 100.094 53.9312C99.6221 55.3196 99.005 55.5767 97.6724 54.7283Z" fill="#FF6196" fill-opacity="1.000000" fill-rule="nonzero"/>
	<path id="Vector" d="M89.3859 73.8833C90.1615 70.9222 90.9329 68.184 91.5842 65.4156C92.219 62.7311 93.4264 60.2155 95.1238 58.0409C96.165 56.6738 97.335 57.2181 98.5305 57.5138C99.6361 57.7837 99.9147 58.5936 99.9618 59.6564C100.136 62.5952 99.2411 65.4979 97.442 67.8282C95.3003 70.4834 92.5319 72.5642 89.3859 73.8833Z" fill="#FF6196" fill-opacity="1.000000" fill-rule="nonzero"/>
	<path id="Vector" d="M119.944 3.83398C120.008 2.87964 119.983 1.92139 119.871 0.971436C119.783 0.706177 119.607 0.478271 119.374 0.324463C119.184 0.169678 118.961 0.0599365 118.723 0.00305176C118.585 -0.0227051 118.393 0.118774 118.208 0.320068C118.03 0.511353 117.878 0.726196 117.758 0.958618C117.65 1.36951 117.627 1.79822 117.69 2.21851L117.69 21.382C112.023 21.7842 106.357 20.5968 101.329 17.9537C99.6849 17.2107 98.3781 15.8802 97.6646 14.2233C96.951 12.5663 96.8824 10.7025 97.4722 8.99768C98.1107 6.58508 98.8177 4.19397 99.5463 1.80713C99.7177 1.23718 99.8162 0.650024 99.5463 0.315796C99.3961 0.153076 99.1887 0.0548096 98.9678 0.041626C98.6847 0.0446777 98.4105 0.140991 98.1879 0.315796C97.8674 0.507568 97.6121 0.79126 97.4551 1.13C96.598 3.70117 95.8439 6.29797 95.1882 8.92053C94.9407 9.95398 94.874 11.0225 94.9911 12.0787C95.1569 13.9899 95.8677 15.8132 97.0389 17.3324C98.2102 18.8516 99.7928 20.0027 101.599 20.6492C102.409 20.9877 102.884 21.3219 102.657 22.3889C102.344 23.743 102.04 25.0972 101.732 26.4556C99.632 35.6603 97.5436 44.8691 95.4668 54.0823C95.4082 54.493 95.2275 54.8768 94.9482 55.1836C93.5793 56.2717 92.4292 57.6095 91.5586 59.126C90.4493 61.1273 89.6818 63.2998 89.2875 65.5538C89.2118 66.2728 88.952 66.9602 88.5331 67.5494C88.1143 68.1387 87.5505 68.61 86.8964 68.9177C85.1094 69.8219 83.4681 70.9917 81.4841 72.2087C81.6163 69.8228 81.5906 67.4307 81.407 65.0482C81.256 64.3153 81.2881 63.5564 81.5004 62.8389C81.7126 62.1213 82.0985 61.4672 82.624 60.9343C85.2375 58.3452 87.1005 55.0961 88.0148 51.5326C88.2878 50.7065 88.3628 49.8279 88.2334 48.9675C88.104 48.1072 87.7739 47.2894 87.27 46.5802C86.7661 45.871 86.1023 45.2904 85.3325 44.8851C84.5625 44.48 83.7081 44.2616 82.8383 44.2478C81.4298 44.2321 80.047 44.625 78.8573 45.379C74.7683 48.1713 70.7504 51.0662 66.8073 54.0609C64.4633 55.8264 62.2563 57.7804 59.9852 59.6317C59.8873 59.5265 59.8025 59.41 59.7324 59.2845C59.689 58.9691 59.604 58.6606 59.4796 58.3676C57.5812 55.4364 58.8967 53.3066 60.958 51.1169C63.1053 48.866 64.2919 45.8673 64.2661 42.7565C64.3328 41.1715 63.8363 39.614 62.8649 38.3599C62.3474 37.7233 61.7096 37.1947 60.9879 36.8043C59.9629 36.2434 58.7908 36.0092 57.6289 36.1333C56.4669 36.2573 55.3707 36.7338 54.4873 37.4985L53.2917 38.3556C50.562 40.3097 47.7981 42.2123 45.1713 44.3035C41.3364 47.3651 37.5841 50.5288 33.9183 53.7909C32.2042 55.3036 30.953 57.369 29.1746 58.7747C19.9014 66.098 10.5297 73.2886 1.19226 80.5264C0.871094 80.7179 0.575928 80.9497 0.313721 81.2163C0.286743 81.2552 0.263794 81.2969 0.245117 81.3406C0.0480957 81.7991 -0.119019 82.5575 0.112305 82.8361C0.169067 82.8965 0.237671 82.9446 0.313721 82.9774C0.721924 83.1469 1.17627 83.1696 1.59924 83.0417C2.15979 82.751 2.67395 82.3783 3.12488 81.9362L29.2645 61.6757C29.7317 61.3115 30.2245 60.9814 30.7944 60.5701C30.9476 62.2777 31.5807 63.9072 32.6206 65.2703C33.6604 66.6334 35.0646 67.6747 36.671 68.2737C38.2773 68.8728 40.0205 69.0054 41.699 68.656C43.3774 68.3066 44.9229 67.4897 46.1569 66.2994C49.1565 63.4113 52.2548 60.6086 55.3101 57.7676L56.4242 56.722C58.2926 60.3773 58.104 61.3414 55.2329 63.6426C37.5894 77.761 19.9585 91.8821 2.3407 106.006C1.5907 106.606 0.108032 107.15 1.08081 108.427C2.05359 109.704 2.9491 108.389 3.6947 107.793C20.2242 94.5918 36.7423 81.3734 53.2489 68.1378C53.6774 67.7949 54.1273 67.4907 54.7487 67.0365L54.7487 68.4249C54.6647 70.0292 55.0599 71.6221 55.884 73.001C56.7083 74.38 57.9241 75.4825 59.3767 76.1682C60.8007 76.8917 62.4172 77.1449 63.9943 76.8916C65.5712 76.6383 67.0271 75.8914 68.1528 74.7584C71.551 71.7588 74.9149 68.6992 78.2959 65.6738C78.5101 65.481 78.7588 65.3353 79.153 65.0353C79.6366 67.9807 79.542 70.9922 78.8744 73.9014C78.7096 74.2882 78.4393 74.6208 78.0945 74.8613C75.3005 77.2753 72.4966 79.6793 69.6826 82.0732L28.4076 117.109C27.9243 117.432 27.4972 117.831 27.1434 118.292C27.0305 118.502 26.9672 118.735 26.9583 118.974C26.9493 119.212 26.9951 119.449 27.092 119.667C27.2856 119.812 27.5094 119.912 27.7468 119.959C27.9843 120.005 28.2291 119.998 28.4633 119.937C28.6481 119.884 28.8181 119.788 28.9603 119.659C29.1746 119.487 29.3889 119.269 29.5817 119.093L59.4196 93.8104C60.8551 92.5935 62.3036 91.3936 63.8162 90.1252C63.8928 90.329 63.9543 90.5381 64.0005 90.7509C64.0861 92.4049 64.6556 93.9973 65.6383 95.3304C66.6211 96.6637 67.9738 97.6788 69.5284 98.25C71.0642 98.9171 72.7661 99.1027 74.4097 98.7821C76.0531 98.4614 77.5605 97.6499 78.733 96.4545C80.7213 94.6418 82.684 92.7992 84.6552 90.9651C85.9407 89.7866 87.1835 88.604 88.5376 87.3312C88.7898 88.2108 88.9944 89.1035 89.1504 90.0052C89.3473 92.104 89.0577 94.22 88.3042 96.1887C87.5505 98.1575 86.3533 99.9259 84.8052 101.357C79.8386 106.705 74.7606 111.937 69.7255 117.212C69.3955 117.555 68.9413 117.838 68.7614 118.245C68.5813 118.652 68.4657 119.449 68.6799 119.62L68.7399 119.659C69.1892 119.877 69.6946 119.954 70.1884 119.877C70.3267 119.849 70.45 119.771 70.5354 119.659C70.6554 119.535 70.7711 119.38 70.8868 119.265C74.9663 115.048 79.0673 110.853 83.1168 106.606C84.7513 104.95 86.2881 103.2 87.7191 101.365C89.5851 99.2996 90.8224 96.7438 91.2855 93.9988C91.7485 91.2538 91.4181 88.4336 90.333 85.87C90.2164 85.2983 90.3304 84.7039 90.6501 84.2159C90.9287 83.736 91.2373 83.2688 91.5543 82.806C92.569 81.4886 93.4141 80.049 94.0697 78.5209C95.3368 74.7704 97.2817 71.2844 99.8076 68.2363C100.969 66.764 101.768 65.0394 102.14 63.2017C102.512 61.3638 102.447 59.4642 101.95 57.6561C101.775 56.9688 101.775 56.2482 101.95 55.5607C104.119 48.8458 106.351 42.1523 108.562 35.4545L111.519 26.4813L112.432 23.7087C114.377 23.7087 116.211 23.6702 118.037 23.7087C119.554 23.7516 120.017 23.0403 120 21.5662C119.91 15.6526 119.944 9.74329 119.944 3.83398ZM43.9371 65.1382C42.979 66.025 41.7648 66.5856 40.4683 66.7396C39.1719 66.8936 37.86 66.6329 36.7208 65.9952C35.587 65.5107 34.631 64.6871 33.9841 63.6375C33.3373 62.5878 33.0314 61.3636 33.1084 60.1331C33.2456 58.6217 33.8732 57.1967 34.8954 56.075C41.5388 49.7402 48.7368 44.0137 56.4028 38.9641C56.8212 38.6683 57.2971 38.4639 57.7998 38.3641C58.1368 38.302 58.4825 38.302 58.8197 38.3641C59.2234 38.4429 59.6086 38.5969 59.9552 38.8184C60.656 39.2534 61.2224 39.8743 61.5916 40.6118C61.9607 41.3494 62.1182 42.1748 62.0464 42.9965C61.9575 45.136 61.2092 47.1956 59.9038 48.8929C55.2371 54.9154 49.8779 60.3679 43.9371 65.1382ZM66.2202 73.4043C65.4752 74.1704 64.4966 74.667 63.4385 74.8159C62.3804 74.9648 61.3027 74.7577 60.3751 74.2271C59.3988 73.7195 58.5679 72.9717 57.9606 72.054C57.3533 71.1362 56.9897 70.0791 56.9042 68.9819C56.8047 68.0348 56.9263 67.0774 57.2594 66.1852C57.5925 65.2928 58.1281 64.49 58.824 63.8397C65.3289 57.8401 72.3079 52.3757 79.6929 47.5002C79.9158 47.3589 80.1215 47.2174 80.3657 47.0718C81.0107 46.6061 81.7924 46.368 82.5875 46.3951C83.3827 46.4224 84.1462 46.7131 84.7581 47.2217C85.35 47.7231 85.7688 48.3984 85.955 49.1516C86.1411 49.9048 86.0852 50.6974 85.795 51.4169C84.8607 54.5288 83.1364 57.3457 80.7899 59.5931C76.0634 64.3154 71.1482 68.8619 66.2288 73.3872L66.2202 73.4043ZM91.55 78.7223C88.8175 83.3136 85.3967 87.4585 81.407 91.0122C79.8872 92.4778 78.3088 93.879 76.6719 95.2161C75.8049 95.9354 74.7626 96.4116 73.6512 96.5959C72.5399 96.7803 71.3995 96.666 70.3469 96.265C69.2942 95.864 68.3669 95.1906 67.6599 94.3135C66.9529 93.4365 66.4916 92.3875 66.323 91.2737C66.2544 90.6543 66.3091 90.0276 66.4841 89.4296C66.6592 88.8315 66.9512 88.2742 67.3429 87.7898C73.1743 81.4573 79.8387 75.9462 87.1534 71.4075C87.2424 71.3729 87.3367 71.3541 87.432 71.3517L87.8605 71.7803C86.6606 73.0658 85.4265 74.2914 84.2738 75.6069C83.9271 76.1154 83.6396 76.6617 83.4167 77.2354C84.0509 77.4238 84.7922 77.9209 85.3065 77.7452C87.3762 77.051 89.4117 76.2454 91.5929 75.3883L93.3541 74.7028C92.6942 76.1597 92.2229 77.4882 91.5586 78.7051L91.55 78.7223ZM97.4336 67.8593C95.8352 69.8942 93.8318 71.5752 91.55 72.7958C90.8445 73.1901 90.1202 73.5586 89.3774 73.9014C90.1403 70.9832 90.903 68.2792 91.55 65.5453L91.5758 65.4338C92.2106 62.7493 93.418 60.2335 95.1154 58.059C96.1566 56.692 97.3265 57.2362 98.5221 57.5319C99.6277 57.8019 99.9062 58.6118 99.9534 59.6746C100.129 62.6108 99.2372 65.5117 97.4423 67.8422L97.4336 67.8593ZM107.461 31.4351C104.984 38.9341 102.477 46.4332 100.06 53.9409C99.6062 55.3507 98.9891 55.6079 97.6565 54.7594L104.011 26.5071L104.989 22.1704L110.131 23.3745L109.098 26.5071L107.461 31.4351Z" fill="#000000" fill-opacity="1.000000" fill-rule="nonzero"/>
</svg>
