<svg width="40.000000" height="40.000000" viewBox="0 0 40 40" fill="none" xmlns="http://www.w3.org/2000/svg" xmlns:xlink="http://www.w3.org/1999/xlink">
	<desc>
			Created with Pixso.
	</desc>
	<defs/>
	<path id="Vector" d="M0 20L0 40L40 40L40 0L0 0L0 20ZM32.235 18.4066C33.2517 18.66 34.025 19.1117 34.7367 19.8484C35.105 20.2417 35.6517 20.9584 35.695 21.1317C35.7083 21.1816 33.9683 22.3484 32.915 23.0033C32.8767 23.0283 32.7233 22.8633 32.5533 22.61C32.0367 21.86 31.4983 21.5366 30.6733 21.48C29.46 21.3966 28.68 22.0316 28.6867 23.0917C28.6756 23.3523 28.7343 23.6112 28.8567 23.8417C29.1233 24.3933 29.62 24.725 31.1733 25.3966C34.0383 26.63 35.2633 27.4417 36.025 28.5967C36.875 29.885 37.0667 31.9434 36.4883 33.4734C35.855 35.1367 34.28 36.2667 32.0633 36.64C31.3783 36.7617 29.7533 36.7433 29.0167 36.61C27.41 36.3234 25.8867 35.53 24.9467 34.4883C24.5783 34.0834 23.86 33.0217 23.905 32.9467C23.9233 32.92 24.0883 32.8184 24.2717 32.7117C24.4517 32.61 25.1233 32.2217 25.7583 31.8533L26.9083 31.1866L27.15 31.5433C27.4867 32.0566 28.2217 32.7617 28.6667 32.9967C29.9433 33.67 31.695 33.575 32.5583 32.8C32.7319 32.6538 32.8694 32.4694 32.9599 32.2611C33.0504 32.053 33.0915 31.8267 33.08 31.6C33.08 31.1367 33.0217 30.9333 32.78 30.5834C32.47 30.14 31.835 29.7667 30.0317 28.9833C27.9683 28.095 27.08 27.5433 26.2667 26.6666C25.759 26.0881 25.3842 25.4055 25.1683 24.6666C25.0167 24.1017 24.9783 22.6851 25.0983 22.115C25.5233 20.12 27.0283 18.7317 29.2 18.3184C29.905 18.1851 31.5433 18.235 32.235 18.4066ZM22.845 20.0767L22.8583 21.715L17.65 21.715L17.65 36.5083L13.9667 36.5083L13.9667 21.715L8.76334 21.715L8.76334 20.1083C8.76334 19.2184 8.78166 18.475 8.80667 18.4584C8.82666 18.4316 11.995 18.4183 15.835 18.425L22.8267 18.4449L22.845 20.0767Z" fill="#7572D5" fill-opacity="1.000000" fill-rule="nonzero"/>
</svg>
