<svg width="31.533081" height="31.533081" viewBox="0 0 31.5331 31.5331" fill="none" xmlns="http://www.w3.org/2000/svg" xmlns:xlink="http://www.w3.org/1999/xlink">
	<desc>
			Created with Pixso.
	</desc>
	<defs>
		<radialGradient id="paint_radial_11_4226_0" cx="0.000000" cy="0.000000" r="1.000000" gradientUnits="userSpaceOnUse" gradientTransform="translate(9.54643 31.5331) rotate(32.1601) scale(29.4502 21.1944)">
			<stop stop-color="#FED276"/>
			<stop offset="0.170240" stop-color="#FDBD61" stop-opacity="0.976471"/>
			<stop offset="0.454081" stop-color="#F6804D"/>
			<stop offset="1.000000" stop-color="#E83D5C" stop-opacity="0.000000"/>
		</radialGradient>
	</defs>
	<path id="Symbol" d="M9.26602 0.0948792C10.9477 0.0181427 11.4846 0 15.7666 0C20.0485 0 20.5854 0.0181427 22.2671 0.0948792C23.9452 0.171417 25.0913 0.437973 26.0942 0.827759C27.131 1.23062 28.0103 1.76973 28.8868 2.64624C29.7633 3.52281 30.3025 4.40207 30.7054 5.43886C31.0951 6.44173 31.3617 7.58784 31.4382 9.26602C31.5149 10.9477 31.5331 11.4846 31.5331 15.7666C31.5331 20.0485 31.5149 20.5854 31.4382 22.2671C31.3617 23.9452 31.0951 25.0914 30.7054 26.0942C30.3025 27.131 29.7633 28.0103 28.8868 28.8868C28.0103 29.7634 27.131 30.3025 26.0942 30.7054C25.0913 31.0951 23.9452 31.3616 22.2671 31.4382C20.5854 31.5149 20.0485 31.5331 15.7666 31.5331C11.4846 31.5331 10.9477 31.5149 9.26602 31.4382C7.58786 31.3616 6.44171 31.0951 5.43884 30.7054C4.40207 30.3025 3.5228 29.7634 2.64624 28.8868C1.76971 28.0103 1.23062 27.131 0.827759 26.0942C0.437958 25.0914 0.171417 23.9452 0.0948792 22.2671C0.018158 20.5854 0 20.0485 0 15.7666C0 11.4846 0.018158 10.9477 0.0948792 9.26602C0.171417 7.58784 0.437958 6.44173 0.827759 5.43886C1.23062 4.40207 1.76971 3.52281 2.64624 2.64624C3.5228 1.76973 4.40207 1.23062 5.43884 0.827759C6.44171 0.437973 7.58786 0.171417 9.26602 0.0948792ZM22.1376 2.93275C20.4751 2.8569 19.9764 2.84082 15.7666 2.84082C11.5567 2.84082 11.058 2.8569 9.39551 2.93275C7.85828 3.00285 7.02347 3.25969 6.4679 3.47562C5.73193 3.76163 5.20673 4.10329 4.65503 4.65504C4.1033 5.20673 3.76163 5.73195 3.47562 6.46788C3.2597 7.02345 3.00284 7.85828 2.93274 9.39551C2.8569 11.058 2.84082 11.5567 2.84082 15.7666C2.84082 19.9764 2.8569 20.4751 2.93274 22.1376C3.00284 23.6748 3.2597 24.5096 3.47562 25.0652C3.76163 25.8011 4.10336 26.3264 4.65503 26.878C5.20673 27.4298 5.73193 27.7715 6.4679 28.0575C7.02347 28.2734 7.85828 28.5302 9.39551 28.6003C11.0578 28.6762 11.5564 28.6923 15.7666 28.6923C19.9767 28.6923 20.4753 28.6762 22.1376 28.6003C23.6748 28.5302 24.5096 28.2734 25.0652 28.0575C25.8011 27.7715 26.3264 27.4298 26.8781 26.878C27.4298 26.3264 27.7715 25.8011 28.0575 25.0652C28.2734 24.5096 28.5302 23.6748 28.6003 22.1376C28.6762 20.4751 28.6923 19.9764 28.6923 15.7666C28.6923 11.5567 28.6762 11.058 28.6003 9.39551C28.5302 7.85828 28.2734 7.02345 28.0575 6.46788C27.7715 5.73195 27.4298 5.20673 26.8781 4.65504C26.3264 4.10329 25.8011 3.76163 25.0652 3.47562C24.5096 3.25969 23.6748 3.00285 22.1376 2.93275ZM24.1827 9.24229C25.2277 9.24229 26.0748 8.39526 26.0748 7.35034C26.0748 6.30542 25.2277 5.45831 24.1827 5.45831C23.1379 5.45831 22.2908 6.30542 22.2908 7.35034C22.2908 8.39526 23.1379 9.24229 24.1827 9.24229ZM7.67023 15.7666C7.67023 11.295 11.295 7.67021 15.7666 7.67021C20.238 7.67021 23.8629 11.295 23.8629 15.7666C23.8629 20.238 20.238 23.8629 15.7666 23.8629C11.295 23.8629 7.67023 20.238 7.67023 15.7666ZM15.7666 21.022C12.864 21.022 10.511 18.6691 10.511 15.7666C10.511 12.864 12.864 10.511 15.7666 10.511C18.6691 10.511 21.022 12.864 21.022 15.7666C21.022 18.6691 18.6691 21.022 15.7666 21.022Z" fill="#FFFFFF" fill-opacity="1.000000" fill-rule="evenodd"/>
</svg>
