<svg width="31.510437" height="31.510437" viewBox="0 0 31.5104 31.5104" fill="none" xmlns="http://www.w3.org/2000/svg" xmlns:xlink="http://www.w3.org/1999/xlink">
	<desc>
			Created with Pixso.
	</desc>
	<defs/>
	<path d="M31.5104 15.7552C31.5104 24.4566 24.4566 31.5104 15.7552 31.5104C7.05386 31.5104 0 24.4566 0 15.7552C0 7.05386 7.05386 0 15.7552 0C24.4566 0 31.5104 7.05386 31.5104 15.7552ZM21.0356 28.5032Q18.604 29.5104 15.7552 29.5104Q12.9064 29.5104 10.4748 28.5032Q8.04321 27.496 6.02881 25.4816Q4.0144 23.4672 3.0072 21.0356Q2 18.604 2 15.7552Q2 12.9064 3.0072 10.4748Q4.0144 8.04321 6.02881 6.02881Q8.04321 4.0144 10.4748 3.0072Q12.9064 2 15.7552 2Q18.604 2 21.0356 3.0072Q23.4672 4.0144 25.4816 6.02881Q27.496 8.04321 28.5032 10.4748Q29.5104 12.9064 29.5104 15.7552Q29.5104 18.604 28.5032 21.0356Q27.496 23.4672 25.4816 25.4816Q23.4672 27.496 21.0356 28.5032Z" fill="#FFFFFF" fill-opacity="1.000000" fill-rule="evenodd"/>
	<path d="M7.13174 15.5891C11.7247 13.588 14.7874 12.2688 16.3198 11.6314C20.6952 9.81155 21.6044 9.49542 22.197 9.48499C22.3273 9.48267 22.6187 9.51498 22.8075 9.66815C22.9669 9.79749 23.0107 9.9722 23.0317 10.0948C23.0527 10.2174 23.0788 10.4968 23.0581 10.7151C22.821 13.2063 21.795 19.252 21.2731 22.0422C21.0522 23.2229 20.6173 23.6188 20.1964 23.6575C19.2814 23.7417 18.5866 23.0529 17.7005 22.472C16.3138 21.563 15.5305 20.9972 14.1844 20.1102C12.6289 19.0851 13.6373 18.5217 14.5238 17.601C14.7558 17.36 18.787 13.6933 18.8651 13.3607C18.8748 13.3191 18.8839 13.164 18.7917 13.0821C18.6996 13.0002 18.5637 13.0282 18.4655 13.0505C18.3264 13.0821 16.1112 14.5462 11.8199 17.443C11.1911 17.8748 10.6216 18.0851 10.1113 18.0741C9.54877 18.062 8.46664 17.7561 7.66223 17.4946C6.67554 17.1739 5.89136 17.0043 5.95966 16.4596C5.99521 16.1759 6.38593 15.8857 7.13174 15.5891Z" fill="#FFFFFF" fill-opacity="1.000000" fill-rule="evenodd"/>
</svg>
