<svg width="26.000000" height="26.000000" viewBox="0 0 26 26" fill="none" xmlns="http://www.w3.org/2000/svg" xmlns:xlink="http://www.w3.org/1999/xlink">
	<desc>
			Created with Pixso.
	</desc>
	<defs>
		<linearGradient id="paint_linear_11_6317_0" x1="13.002523" y1="25.997541" x2="13.002523" y2="0.000000" gradientUnits="userSpaceOnUse">
			<stop stop-color="#F9F9F9"/>
			<stop offset="1.000000" stop-color="#FFFFFF"/>
		</linearGradient>
	</defs>
	<path id="Vector" d="M0 26L1.83763 19.3269C0.70153 17.3684 0.105537 15.1501 0.111748 12.8826C0.111748 5.7771 5.92264 0 13.0559 0C16.5201 0 19.7731 1.34082 22.213 3.77515C24.659 6.20972 26.0062 9.44727 26 12.8887C26 19.9944 20.1891 25.7715 13.0497 25.7715L13.0434 25.7715C10.8768 25.7715 8.74736 25.2278 6.85387 24.2019L0 26ZM7.18289 21.8726L7.57402 22.1074C9.2254 23.0837 11.1189 23.5964 13.0497 23.6028L13.0559 23.6028C18.9847 23.6028 23.8147 18.8018 23.8147 12.895C23.8147 10.0342 22.6972 7.34644 20.6671 5.31982C18.637 3.29321 15.9303 2.18115 13.0559 2.18115C7.12703 2.1748 2.29704 6.97583 2.29704 12.8826C2.29704 14.9031 2.86198 16.874 3.94221 18.5793L4.19675 18.9871L3.11031 22.9353L7.18289 21.8726Z" fill="url(#paint_linear_11_6317_0)" fill-opacity="1.000000" fill-rule="nonzero"/>
	<path id="Vector" d="M9.82127 7.49536C9.57916 6.95776 9.32462 6.94556 9.09492 6.93921C8.90868 6.93311 8.69139 6.93311 8.47409 6.93311C8.25681 6.93311 7.90915 7.01343 7.61116 7.33472C7.31316 7.65601 6.48126 8.43457 6.48126 10.0225C6.48126 11.6042 7.6422 13.1365 7.8036 13.3528C7.96503 13.5691 10.0448 16.9241 13.3289 18.2153C16.0605 19.2905 16.6193 19.0742 17.209 19.0186C17.7988 18.9631 19.1212 18.2402 19.3943 17.4863C19.6613 16.7324 19.6613 16.0898 19.5806 15.9541C19.4999 15.8181 19.2826 15.7378 18.9598 15.5771C18.6369 15.4165 17.0476 14.6379 16.7496 14.5269C16.4516 14.4216 16.2344 14.3662 16.0233 14.6875C15.806 15.0088 15.1852 15.7317 14.9989 15.9478C14.8127 16.1641 14.6202 16.1887 14.2974 16.0281C13.9746 15.8674 12.9316 15.5276 11.6962 14.428C10.7339 13.5752 10.082 12.5186 9.89578 12.1973C9.70953 11.876 9.87715 11.7031 10.0386 11.5425C10.1814 11.4004 10.3614 11.1655 10.5228 10.9802C10.6842 10.7947 10.7401 10.6589 10.8456 10.4426C10.9512 10.2263 10.9015 10.041 10.8208 9.88037C10.7401 9.72583 10.1069 8.13184 9.82127 7.49536Z" fill="#FFFFFF" fill-opacity="1.000000" fill-rule="evenodd"/>
</svg>
